HIERARCHY
ROOT Hips
{
	OFFSET 0.00000 0.00000 0.00000
	CHANNELS 6 Xposition Yposition Zposition Zrotation Yrotation Xrotation 
	JOINT LHipJoint
	{
		OFFSET 0 0 0
		CHANNELS 3 Zrotation Yrotation Xrotation
		JOINT LeftHip
		{
			OFFSET 1.28858 -1.83292 1.03970
			CHANNELS 3 Zrotation Yrotation Xrotation
			JOINT LeftKnee
			{
				OFFSET 2.47846 -6.80952 0.00000
				CHANNELS 3 Zrotation Yrotation Xrotation
				JOINT LeftAnkle
				{
					OFFSET 2.75274 -7.56311 0.00000
					CHANNELS 3 Zrotation Yrotation Xrotation
					JOINT LeftToe
					{
						OFFSET 0.12848 -0.35301 1.68223
						CHANNELS 3 Zrotation Yrotation Xrotation
						End Site
						{
							OFFSET 0.00000 -0.00000 0.87311
						}
					}
				}
			}
		}
	}
	JOINT RHipJoint
	{
		OFFSET 0 0 0
		CHANNELS 3 Zrotation Yrotation Xrotation
		JOINT RightHip
		{
			OFFSET -1.31183 -1.83292 1.03970
			CHANNELS 3 Zrotation Yrotation Xrotation
			JOINT RightKnee
			{
				OFFSET -2.44740 -6.72417 0.00000
				CHANNELS 3 Zrotation Yrotation Xrotation
				JOINT RightAnkle
				{
					OFFSET -2.67343 -7.34519 0.00000
					CHANNELS 3 Zrotation Yrotation Xrotation
					JOINT RightToe
					{
						OFFSET -0.16914 -0.46471 1.77626
						CHANNELS 3 Zrotation Yrotation Xrotation
						End Site
						{
							OFFSET -0.00000 -0.00000 0.92777
						}
					}
				}
			}
		}
	}
	JOINT lowerback
	{
		OFFSET 0 0 0
		CHANNELS 3 Zrotation Yrotation Xrotation
		JOINT Chest
		{
			OFFSET 0.01249 2.14252 0.03842
			CHANNELS 3 Zrotation Yrotation Xrotation
			JOINT Chest2
			{
				OFFSET -0.02957 2.14199 -0.03751
				CHANNELS 3 Zrotation Yrotation Xrotation
				JOINT lowerneck
				{
					OFFSET 0 0 0
					CHANNELS 3 Zrotation Yrotation Xrotation
					JOINT Neck
					{
						OFFSET -0.01678 1.65709 -0.05476
						CHANNELS 3 Zrotation Yrotation Xrotation
						JOINT Head
						{
							OFFSET 0.07912 1.58331 -0.11843
							CHANNELS 3 Zrotation Yrotation Xrotation
							End Site
							{
								OFFSET 0.03298 1.73940 -0.04271
							}
						}
					}
				}
				JOINT LeftCollar
				{
					OFFSET 0 0 0
					CHANNELS 3 Zrotation Yrotation Xrotation
					JOINT LeftShoulder
					{
						OFFSET 3.39556 1.16496 0.08673
CHANNELS 3 Zrotation Xrotation Yrotation
						JOINT LeftElbow
						{
OFFSET 0 -5.239100 -0.000000
CHANNELS 3 Zrotation Xrotation Yrotation
							JOINT LeftWrist
							{
OFFSET 0 -3.314670 0.000000
CHANNELS 3 Zrotation Xrotation Yrotation
								JOINT lhand
								{
									OFFSET 0 0 0
CHANNELS 3 Zrotation Xrotation Yrotation
									JOINT LFingers
									{
OFFSET 0 -0.965900 0.000000
CHANNELS 3 Zrotation Xrotation Yrotation
										End Site
										{
OFFSET 0 -0.778730 0.000000
										}
									}
								}
								JOINT LThumb
								{
OFFSET 0 0.000000 0.000000
CHANNELS 3 Zrotation Xrotation Yrotation
									End Site
									{
OFFSET 0 -0.790620 0.790620
									}
								}
							}
						}
					}
				}
				JOINT RightCollar
				{
					OFFSET 0 0 0
					CHANNELS 3 Zrotation Yrotation Xrotation
					JOINT RightShoulder
					{
						OFFSET -3.27193 1.31331 0.33940
CHANNELS 3 Zrotation Xrotation Yrotation
						JOINT RightElbow
						{
OFFSET 0 -5.302520 0.000000
CHANNELS 3 Zrotation Xrotation Yrotation
							JOINT RightWrist
							{
OFFSET 0 -3.678750 0.000000
CHANNELS 3 Zrotation Xrotation Yrotation
								JOINT rhand
								{
									OFFSET 0 0 0
CHANNELS 3 Zrotation Xrotation Yrotation
									JOINT RFingers
									{
OFFSET 0 -0.594810 0.000000
CHANNELS 3 Zrotation Xrotation Yrotation
										End Site
										{
OFFSET 0 -0.479550 0.000000
										}
									}
								}
								JOINT RThumb
								{
OFFSET 0 0.000000 0.000000
CHANNELS 3 Zrotation Xrotation Yrotation
									End Site
									{
OFFSET 0 -0.486870 0.486870
									}
								}
							}
						}
					}
				}
			}
		}
	}
}
MOTION
Frames: 17
Frame Time: .0083333
10.6471 20.9859 10.6883 -1.9382 2.8903 3.7528 0.0000 0.0000 0.0000 -12.9627 -10.2606 -12.7492 2.7823 10.3341 30.0655 0.6235 -17.2881 -17.4525 0.1236 -2.2665 -6.2429 0.0000 0.0000 0.0000 20.4414 6.9893 -1.5498 -0.5228 -4.6337 12.8667 -2.1946 -4.8397 -30.0377 -0.1943 -2.8384 7.8292 0.3404 0.4427 -8.2481 -1.6011 0.6552 1.6763 -1.7779 0.3678 6.4116 -2.5919 -4.1156 1.0006 11.0997 -6.3464 8.7648 3.6233 -2.9105 2.8626 -0.0000 -0.0000 0.0000 6.0343 -3.8976 -40.0394 10.3575 -17.2968 1.5796 6.9371 -2.5362 11.5306 0.0 0.0 0.0 -7.1250 0.0 0.0 -14.1021 18.5524 -9.1636 -0.0000 -0.0000 0.0000 0.2646 5.0225 29.4403 -14.7663 -23.8195 -3.1309 -1.7571 6.9372 46.6633 0.0 0.0 0.0 7.1250 0.0 -0.0 55.4096 69.1876 -35.771
10.6476 20.9864 10.6857 -1.9725 2.9354 3.7571 0.0000 0.0000 0.0000 -12.9031 -10.4757 -12.7636 2.7990 10.3623 30.1583 0.4613 -17.7988 -16.4492 0.0202 0.9174 2.5216 0.0000 0.0000 0.0000 20.4719 6.8099 -1.4569 -0.5011 -4.5380 12.5955 -2.1682 -4.8857 -29.8958 -0.1839 -2.7618 7.6162 0.4248 0.4415 -8.2365 -1.6123 0.6452 1.6737 -1.8387 0.3663 6.4030 -2.6493 -4.1191 0.9696 11.1804 -6.3641 8.8352 3.6557 -2.9154 2.8939 0.0000 -0.0000 0.0000 6.0545 -3.8913 -40.0511 10.3554 -17.2936 1.579 7.0008 -2.5454 11.4948 0.0 0.0 0.0 -7.1250 0.0 0.0 -14.0605 18.5848 -9.1245 0.0000 -0.0000 0.0000 0.2904 5.0261 29.4952 -14.7604 -23.8113 -3.1286 -1.789 6.9822 46.719 0.0 0.0 0.0 7.1250 0.0 -0.0 55.5053 69.2291 -35.8917
10.6460 20.9882 10.6845 -1.9968 2.9770 3.7527 0.0000 0.0000 0.0000 -12.8424 -10.6978 -12.7296 2.8089 10.3790 30.2130 0.6123 -17.4527 -17.4445 0.0263 -1.0472 -2.8788 0.0000 0.0000 0.0000 20.5142 6.7793 -1.3880 -0.4928 -4.5010 12.4906 -2.1711 -4.8592 -29.9004 -0.1883 -2.7944 7.7067 0.4417 0.4346 -8.2284 -1.6059 0.6339 1.6811 -1.8431 0.3613 6.4059 -2.7265 -4.1357 0.8867 11.2850 -6.4065 8.9540 3.6965 -2.9290 2.9514 0.0000 0.0000 0.0000 6.011 -3.8526 -39.7918 10.3841 -17.3382 1.5875 6.8661 -2.2602 11.448 0.0 0.0 0.0 -7.1250 0.0 0.0 -14.1564 18.6357 -9.1742 0.0000 0.0000 0.0000 0.3056 5.0484 29.5489 -14.7927 -23.8565 -3.1416 -1.9605 7.0304 46.6906 0.0 0.0 0.0 7.1250 0.0 -0.0 55.2990 69.2701 -35.7759
10.6444 20.9869 10.6860 -2.0210 2.9774 3.7415 0.0000 0.0000 0.0000 -12.8162 -10.5426 -12.7788 2.8190 10.3961 30.2691 0.6324 -17.3113 -17.5311 0.1177 -2.2114 -6.0903 0.0000 0.0000 0.0000 20.5523 6.7908 -1.3021 -0.4834 -4.4583 12.3698 -2.1635 -4.9019 -29.8743 -0.1918 -2.8202 7.7784 0.4670 0.4405 -8.1998 -1.5966 0.6378 1.6364 -1.8471 0.3633 6.3426 -2.7768 -4.1323 0.9302 11.3142 -6.4115 9.0373 3.7143 -2.9307 2.9715 -0.0000 -0.0000 0.0000 5.9604 -3.654 -39.5496 10.4664 -17.4658 1.6121 6.7079 -1.9677 11.4053 0.0 0.0 0.0 -7.1250 0.0 0.0 -14.2681 18.6834 -9.2357 -0.0000 -0.0000 0.0000 0.2975 5.2069 29.6668 -14.8586 -23.9487 -3.1683 -2.2482 7.0252 46.6223 0.0 0.0 0.0 7.1250 0.0 -0.0 54.9072 69.3274 -35.5335
10.6432 20.9819 10.6884 -2.1615 2.9260 3.7252 0.0000 0.0000 0.0000 -12.6847 -10.1654 -12.8955 2.8255 10.4071 30.3054 0.6342 -17.3697 -17.5724 0.2121 -2.9651 -8.1815 0.0000 0.0000 0.0000 20.7142 6.8254 -1.2345 -0.4779 -4.4335 12.2996 -2.1660 -4.8755 -29.8770 -0.2042 -2.9097 8.0275 0.6633 0.5083 -8.2002 -1.5908 0.7071 1.6049 -1.9422 0.4043 6.3146 -2.8114 -4.1624 1.0562 11.3870 -6.4531 8.9961 3.7441 -2.9556 2.9443 0.0000 0.0000 0.0000 6.0416 -3.5142 -39.8151 10.5520 -17.5984 1.6379 6.6388 -2.1057 11.3839 0.0 0.0 0.0 -7.1250 0.0 0.0 -14.3171 18.707 -9.2618 0.0000 0.0000 0.0000 0.373 5.3418 29.5451 -14.9136 -24.0256 -3.1907 -2.174 7.034 46.609 0.0 0.0 0.0 7.1250 0.0 -0.0 54.9404 69.2953 -35.5243
10.6405 20.9806 10.6863 -2.2655 2.8991 3.7150 0.0000 0.0000 0.0000 -12.5651 -10.0015 -12.9655 2.8265 10.4087 30.3108 0.6614 -17.3444 -17.7661 0.3232 -3.6543 -10.1061 0.0000 0.0000 0.0000 20.8586 6.9836 -1.1672 -0.4782 -4.4349 12.3034 -2.1658 -5.0130 -29.9442 -0.1960 -2.8508 7.8637 0.7743 0.5545 -8.1638 -1.5802 0.7563 1.5927 -1.9871 0.4321 6.2843 -2.8741 -4.1916 1.1906 11.5309 -6.4902 8.8636 3.8010 -2.9804 2.8913 -0.0000 -0.0000 0.0000 6.0581 -3.5215 -39.8465 10.5317 -17.5669 1.6318 6.5961 -2.0296 11.4442 0.0 0.0 0.0 -7.1250 0.0 0.0 -14.3424 18.6498 -9.2981 -0.0000 -0.0000 0.0000 0.423 5.3739 29.4617 -14.9251 -24.0417 -3.1954 -2.0632 7.0116 46.6714 0.0 0.0 0.0 7.1250 0.0 -0.0 55.1709 69.2935 -35.7017
10.6382 20.9824 10.6838 -2.2283 2.9338 3.7046 0.0000 0.0000 0.0000 -12.5837 -10.1409 -12.9126 2.8235 10.4037 30.2942 0.6312 -17.3590 -17.5444 0.2299 -3.0864 -8.5193 0.0000 0.0000 0.0000 20.8379 7.0400 -1.1466 -0.4796 -4.4413 12.3216 -2.1636 -5.1077 -29.9775 -0.2005 -2.8836 7.9548 0.7063 0.5424 -8.1156 -1.5817 0.7472 1.5856 -1.9517 0.4249 6.2480 -2.9387 -4.1842 1.2797 11.6450 -6.4792 8.7692 3.8495 -2.9798 2.8527 0.0000 0.0000 0.0000 6.0021 -3.5745 -39.7838 10.4449 -17.4325 1.6057 6.655 -1.9387 11.524 0.0 0.0 0.0 -7.1250 0.0 0.0 -14.2965 18.5696 -9.2926 0.0000 0.0000 0.0000 0.4135 5.39 29.5586 -14.9264 -24.0435 -3.1959 -2.2128 7.0131 46.7041 0.0 0.0 0.0 7.1250 0.0 -0.0 55.1176 69.3614 -35.7348
10.6372 20.9847 10.6840 -2.1164 2.9626 3.6963 0.0000 0.0000 0.0000 -12.6916 -10.4320 -12.7834 2.8178 10.3941 30.2627 0.4537 -17.9068 -16.4463 0.0154 0.8012 2.2019 0.0000 0.0000 0.0000 20.7139 6.9904 -1.1688 -0.4822 -4.4528 12.3543 -2.1640 -5.1132 -29.9830 -0.1978 -2.8636 7.8992 0.5662 0.5095 -8.1551 -1.5916 0.7190 1.6274 -1.8868 0.4067 6.3118 -3.0150 -4.1702 1.2432 11.7123 -6.4627 8.7436 3.8824 -2.9718 2.8541 0.0000 -0.0000 0.0000 5.9583 -3.6474 -39.8148 10.4091 -17.3769 1.5949 6.7025 -1.9834 11.5055 0.0 0.0 0.0 -7.1250 0.0 0.0 -14.2651 18.586 -9.2655 0.0000 -0.0000 0.0000 0.4238 5.3094 29.5752 -14.9010 -24.008 -3.1855 -2.3161 7.1725 46.6747 0.0 0.0 0.0 7.1250 0.0 -0.0 54.9662 69.3794 -35.6365
10.6351 20.9858 10.6838 -1.9547 2.9521 3.6920 0.0000 0.0000 0.0000 -12.8690 -10.4808 -12.7434 2.8134 10.3867 30.2384 0.6121 -17.4379 -17.4360 0.0633 -1.6239 -4.4675 0.0000 0.0000 0.0000 20.5452 7.0235 -1.1503 -0.4845 -4.4633 12.3839 -2.1721 -5.1217 -30.0379 -0.1802 -2.7340 7.5389 0.3561 0.4654 -8.1907 -1.5989 0.6832 1.6641 -1.7809 0.3818 6.3669 -3.1189 -4.1527 1.2012 11.7377 -6.4417 8.7574 3.9069 -2.9621 2.8673 0.0000 0.0000 0.0000 5.8337 -3.7192 -39.4561 10.3497 -17.2847 1.5773 6.6916 -1.7559 11.5096 0.0 0.0 0.0 -7.1250 0.0 0.0 -14.2723 18.5823 -9.2717 0.0000 0.0000 0.0000 0.4255 5.2113 29.6059 -14.8352 -23.916 -3.1588 -2.4204 7.4244 46.5796 0.0 0.0 0.0 7.1250 0.0 -0.0 54.6678 69.3605 -35.3837
10.6335 20.9844 10.6826 -1.9013 2.9462 3.6830 0.0000 0.0000 0.0000 -12.9462 -10.1731 -12.8342 2.8131 10.3862 30.2365 0.5709 -17.4009 -17.1024 0.1068 -2.1077 -5.8035 0.0000 0.0000 0.0000 20.4911 7.0229 -1.1405 -0.4853 -4.4670 12.3944 -2.1838 -5.0620 -30.0808 -0.1810 -2.7403 7.5566 0.2834 0.4482 -8.1636 -1.5930 0.6671 1.6476 -1.7359 0.3708 6.3324 -3.1450 -4.1544 1.2509 11.7122 -6.4411 8.7532 3.9047 -2.9652 2.8577 0.0000 -0.0000 0.0000 5.7799 -3.6698 -39.4171 10.3441 -17.276 1.5756 6.7366 -1.8065 11.4685 0.0 0.0 0.0 -7.1250 0.0 0.0 -14.2441 18.6207 -9.2396 0.0000 -0.0000 0.0000 0.4261 5.2111 29.6419 -14.7842 -23.8446 -3.1382 -2.4542 7.5594 46.4252 0.0 0.0 0.0 7.1250 0.0 -0.0 54.3003 69.2843 -35.0157
10.6331 20.9823 10.6810 -1.9782 2.9260 3.6805 0.0000 0.0000 0.0000 -12.8705 -9.9928 -12.8889 2.8137 10.3872 30.2399 0.6439 -17.2154 -17.5739 0.3217 -3.6455 -10.0815 0.0000 0.0000 0.0000 20.5679 6.9735 -1.1882 -0.4884 -4.4813 12.4348 -2.1874 -4.9391 -30.0418 -0.1970 -2.8583 7.8844 0.3646 0.4597 -8.1230 -1.5640 0.6714 1.5998 -1.7507 0.3748 6.2595 -3.1041 -4.1687 1.3350 11.6330 -6.4515 8.7260 3.8755 -2.9750 2.8330 0.0000 -0.0000 0.0000 5.7833 -3.4688 -39.5431 10.4300 -17.4093 1.6012 6.7899 -1.8964 11.3813 0.0 0.0 0.0 -7.1250 0.0 0.0 -14.2132 18.7037 -9.1912 0.0000 -0.0000 0.0000 0.4132 5.2639 29.675 -14.7616 -23.813 -3.1291 -2.3587 7.5272 46.2531 0.0 0.0 0.0 7.1250 0.0 -0.0 54.0072 69.1544 -34.6482
10.6317 20.9804 10.6811 -1.9946 2.9260 3.6731 0.0000 0.0000 0.0000 -12.8500 -10.0296 -12.8565 2.8137 10.3872 30.2400 0.6472 -17.2300 -17.6064 0.3095 -3.5768 -9.8890 0.0000 0.0000 0.0000 20.5939 6.9626 -1.2060 -0.4926 -4.4999 12.4875 -2.1754 -5.0058 -30.0003 -0.1717 -2.6690 7.3587 0.3348 0.4412 -8.1005 -1.5231 0.6467 1.5658 -1.6943 0.3603 6.2090 -3.1621 -4.1646 1.4290 11.6178 -6.4400 8.6846 3.8833 -2.9761 2.8053 0.0000 -0.0000 0.0000 5.6868 -3.3397 -39.3776 10.4310 -17.4109 1.6015 6.9103 -1.7912 11.5225 0.0 0.0 0.0 -7.1250 0.0 0.0 -14.1211 18.5613 -9.1739 0.0000 -0.0000 0.0000 0.3417 5.331 29.8639 -14.7658 -23.8188 -3.1307 -2.3863 7.4677 46.1927 0.0 0.0 0.0 7.1250 0.0 -0.0 53.8531 69.1287 -34.502
10.6308 20.9807 10.6818 -1.8712 2.9619 3.6673 0.0000 0.0000 0.0000 -12.9911 -10.0817 -12.8241 2.8151 10.3895 30.2474 0.6463 -17.2472 -17.6070 0.2963 -3.5004 -9.6751 0.0000 0.0000 0.0000 20.4662 6.8902 -1.2159 -0.4925 -4.4995 12.4864 -2.1489 -5.2484 -29.9568 -0.1189 -2.2234 6.1235 0.1267 0.3788 -8.1101 -1.4823 0.5827 1.5742 -1.5429 0.3204 6.2184 -3.3101 -4.1127 1.4408 11.6868 -6.3729 8.6722 3.9313 -2.9463 2.8006 0.0000 -0.0000 0.0000 5.5534 -3.3236 -39.3682 10.4370 -17.4202 1.6033 7.0475 -1.8659 11.5456 0.0 0.0 0.0 -7.1250 0.0 0.0 -14.0252 18.5333 -9.1166 0.0000 -0.0000 0.0000 0.1848 5.3232 30.2258 -14.7481 -23.7941 -3.1236 -2.5323 7.4365 46.2194 0.0 0.0 0.0 7.1250 0.0 -0.0 53.7859 69.1923 -34.5193
10.6316 20.9814 10.6809 -1.7963 2.9652 3.6621 0.0000 0.0000 0.0000 -13.0795 -10.0940 -12.8066 2.8161 10.3912 30.2531 0.6420 -17.2857 -17.5926 0.2896 -3.4607 -9.5641 0.0000 0.0000 0.0000 20.3723 6.7617 -1.2634 -0.4921 -4.4980 12.4820 -2.1359 -5.2592 -29.8804 -0.1070 -2.1090 5.8069 0.0216 0.3567 -8.1582 -1.4505 0.5630 1.6079 -1.4531 0.3066 6.2794 -3.4418 -4.0639 1.4404 11.7978 -6.3133 8.6583 3.9890 -2.9181 2.7986 0.0000 0.0000 0.0000 5.46 -3.361 -39.5646 10.4645 -17.4629 1.6116 7.1412 -1.9915 11.2684 0.0 0.0 0.0 -7.1250 0.0 0.0 -13.9786 18.8003 -8.9988 0.0000 0.0000 0.0000 0.0528 5.2941 30.4789 -14.7237 -23.7597 -3.1138 -2.6005 7.4884 46.1952 0.0 0.0 0.0 7.1250 0.0 -0.0 53.6749 69.2008 -34.4433
10.6259 20.9800 10.6762 -1.9529 2.9332 3.6628 0.0000 0.0000 0.0000 -12.8646 -10.0581 -12.8503 2.8152 10.3897 30.2483 0.6313 -17.3210 -17.5270 0.2765 -3.3825 -9.3454 0.0000 0.0000 0.0000 20.5936 7.0591 -1.1844 -0.4946 -4.5088 12.5127 -2.1817 -5.1817 -30.1280 -0.1578 -2.5598 7.0554 0.1631 0.4292 -8.1540 -1.4295 0.6435 1.6031 -1.4999 0.3510 6.2754 -3.4258 -4.1071 1.4360 11.8620 -6.3817 8.7055 4.0036 -2.9478 2.8202 0.0000 -0.0000 0.0000 5.4854 -3.4469 -39.8758 10.4136 -17.3839 1.5963 7.2468 -2.0965 11.1266 0.0 0.0 0.0 -7.1250 0.0 0.0 -13.9150 18.935 -8.9123 0.0000 -0.0000 0.0000 0.0997 5.3628 30.4492 -14.7624 -23.8141 -3.1294 -2.5678 7.5668 46.2031 0.0 0.0 0.0 7.1250 0.0 -0.0 53.7204 69.1946 -34.4715
10.6192 20.9784 10.6709 -2.0433 2.9129 3.6656 0.0000 0.0000 0.0000 -12.7227 -10.0342 -12.9097 2.8158 10.3908 30.2517 0.6231 -17.3231 -17.4661 0.2636 -3.3029 -9.1232 0.0000 0.0000 0.0000 20.7550 7.4201 -1.0502 -0.4948 -4.5098 12.5155 -2.2356 -5.1213 -30.4312 -0.2205 -3.0228 8.3422 0.2587 0.4897 -8.1513 -1.4510 0.7160 1.6235 -1.5665 0.3908 6.2991 -3.3028 -4.1521 1.3067 11.7806 -6.4487 8.8245 3.9526 -2.9712 2.8766 -0.0000 -0.0000 0.0000 5.5762 -3.5594 -40.1755 10.3689 -17.3145 1.583 7.3592 -2.2355 11.1935 0.0 0.0 0.0 -7.1250 0.0 0.0 -13.8329 18.8651 -8.8787 -0.0000 -0.0000 0.0000 0.2178 5.3236 30.4104 -14.7776 -23.8354 -3.1355 -2.6613 7.6275 46.1704 0.0 0.0 0.0 7.1250 0.0 -0.0 53.5692 69.2066 -34.3684
10.6193 20.9786 10.6695 -1.8626 2.9537 3.6510 0.0000 0.0000 0.0000 -12.9205 -10.0895 -12.9025 2.8193 10.3966 30.2709 0.6093 -17.3761 -17.3856 0.1984 -2.8682 -7.9120 0.0000 0.0000 0.0000 20.5491 7.3273 -1.0095 -0.4896 -4.4867 12.4501 -2.2231 -5.1094 -30.3482 -0.2068 -2.9281 8.0786 0.1385 0.4627 -8.2516 -1.5288 0.6995 1.7350 -1.5824 0.3809 6.4735 -3.2358 -4.1365 1.1361 11.7143 -6.4267 8.8637 3.9176 -2.9532 2.9112 -0.0000 0.0000 0.0000 5.6376 -3.6669 -40.2943 10.3931 -17.3521 1.5902 7.424 -2.3129 11.217 0.0 0.0 0.0 -7.1250 0.0 0.0 -13.7867 18.8397 -8.8552 -0.0000 0.0000 0.0000 0.2993 5.0855 30.5097 -14.7207 -23.7555 -3.1125 -2.8307 7.7347 46.1307 0.0 0.0 0.0 7.1250 0.0 -0.0 53.3376 69.2395 -34.2263
